<svg width="25" height="25" viewBox="0 0 25 25" fill="none" xmlns="http://www.w3.org/2000/svg">
<path d="M5.50726 2.75363C5.50726 4.21581 4.52972 5.47422 2.75225 5.47422C1.07942 5.47422 0 4.2874 0 2.82523C0 1.3245 1.04638 0 2.75363 0C4.46088 0 5.47422 1.2529 5.50726 2.75363ZM0 24.7827V6.88408H5.50726V24.7827H0Z" fill="#EF7C00"/>
<path d="M8.2608 13.0018C8.2608 10.8747 8.19058 9.09719 8.12036 7.56204H13.0686L13.3137 9.93429H13.4183C14.115 8.8177 15.8223 7.18066 18.6805 7.18066C22.1666 7.18066 24.7826 9.51437 24.7826 14.5356V24.7819H19.2753V15.3355C19.2753 13.1409 18.4396 11.4667 16.5217 11.4667C15.0595 11.4667 14.327 12.6508 13.9429 13.6269C13.8025 13.9766 13.7681 14.464 13.7681 14.9528V24.7819H8.2608V13.0018Z" fill="#EF7C00"/>
</svg>
