<svg width="15" height="15" viewBox="0 0 15 15" fill="none" xmlns="http://www.w3.org/2000/svg">
<path d="M14.7916 12.1656L12.6767 14.2118C12.3646 14.524 11.9508 14.6298 11.5478 14.6303C9.76565 14.5782 8.08113 13.7244 6.69803 12.8476C4.42775 11.2367 2.34468 9.23927 1.0373 6.82542C0.535877 5.81321 -0.0524727 4.52171 0.00373975 3.3919C0.00875225 2.96689 0.126177 2.54976 0.433065 2.27581L2.54789 0.214149C2.98704 -0.150182 3.41173 -0.0242148 3.69275 0.400161L5.39414 3.54692C5.57321 3.91971 5.47049 4.31914 5.20331 4.58552L4.42416 5.34507C4.37606 5.40934 4.34544 5.48249 4.34466 5.5621C4.64344 6.69012 5.54858 7.72981 6.34818 8.44532C7.14776 9.16084 8.00724 10.1302 9.12289 10.3597C9.26079 10.3972 9.4297 10.4104 9.52836 10.3209L10.4347 9.42188C10.7472 9.1909 11.1983 9.078 11.5319 9.26687H11.5478L14.6166 11.034C15.0672 11.3094 15.1141 11.8417 14.7916 12.1656Z" fill="#EF7C00"/>
</svg>
