<svg width="30" height="19" viewBox="0 0 30 19" fill="none" xmlns="http://www.w3.org/2000/svg">
<path d="M29.3122 1.23662C29.5218 0.523186 29.3122 0 28.3211 0H25.0379C24.2025 0 23.8207 0.45261 23.6111 0.949713C23.6111 0.949713 21.9418 5.12139 19.5764 7.82631C18.8128 8.61339 18.464 8.86194 18.0478 8.86194C17.8397 8.86194 17.5373 8.61339 17.5373 7.89995V1.23662C17.5373 0.380499 17.2963 0 16.6001 0H11.441C10.92 0 10.6056 0.395842 10.6056 0.773272C10.6056 1.58337 11.7883 1.77055 11.9096 4.05354V9.00616C11.9096 10.0909 11.7195 10.2888 11.3003 10.2888C10.1879 10.2888 7.48112 6.10179 5.87471 1.30873C5.56181 0.37743 5.24592 0.00153489 4.40753 0.00153489H1.12584C0.18714 0.00153489 0 0.454144 0 0.951247C0 1.84419 1.11236 6.26289 5.18154 12.1069C7.89433 16.0975 11.7135 18.2609 15.1928 18.2609C17.2783 18.2609 17.5358 17.7806 17.5358 16.9521V13.9358C17.5358 12.9753 17.7349 12.782 18.3951 12.782C18.8802 12.782 19.7156 13.0336 21.6634 14.9561C23.8881 17.236 24.2564 18.2593 25.5065 18.2593H28.7882C29.7254 18.2593 30.194 17.7791 29.9245 16.8309C29.6295 15.8874 28.5666 14.5142 27.1563 12.8894C26.3898 11.9627 25.2445 10.9654 24.8956 10.4668C24.4091 9.82393 24.5498 9.54009 24.8956 8.96934C24.8971 8.97087 28.896 3.19895 29.3122 1.23662Z" fill="#EF7C00"/>
</svg>
